<?xml version="1.0" encoding="utf-8"?>
<!DOCTYPE svg PUBLIC "-//W3C//DTD SVG 1.1//EN" "http://www.w3.org/Graphics/SVG/1.1/DTD/svg11.dtd">
<svg version="1.1" id="Capa_1" xmlns="http://www.w3.org/2000/svg" xmlns:xlink="http://www.w3.org/1999/xlink" x="0px" y="0px"
	 width="51px" height="51px" viewBox="14.9 13.4 51 51" enable-background="new 14.9 13.4 51 51" xml:space="preserve">
<circle stroke="#000000" stroke-miterlimit="10" cx="40.4" cy="38.9" r="25"/>
<g>
	<g>
		<path fill="#FFFFFF" d="M29.6,34.9c0.3,0.2,1.4,0.9,3,2.1c1.7,1.2,3,2.1,3.9,2.7c0.1,0.1,0.3,0.2,0.6,0.4c0.3,0.2,0.6,0.4,0.8,0.6
			s0.5,0.3,0.8,0.5c0.3,0.2,0.6,0.3,0.9,0.4c0.3,0.1,0.5,0.1,0.7,0.1h0h0c0.2,0,0.5,0,0.7-0.1c0.3-0.1,0.6-0.2,0.9-0.4
			s0.6-0.3,0.8-0.5c0.2-0.1,0.5-0.3,0.8-0.6c0.3-0.2,0.5-0.4,0.6-0.4c0.9-0.6,3.2-2.2,7-4.8c0.7-0.5,1.3-1.1,1.8-1.8
			c0.5-0.7,0.7-1.5,0.7-2.2c0-0.7-0.2-1.2-0.7-1.7c-0.5-0.5-1-0.7-1.7-0.7H29.4c-0.8,0-1.3,0.3-1.8,0.8c-0.4,0.5-0.6,1.2-0.6,1.9
			c0,0.6,0.3,1.3,0.8,2C28.4,33.9,29,34.5,29.6,34.9z"/>
		<path fill="#FFFFFF" d="M52.2,36.5c-3.3,2.2-5.7,3.9-7.4,5.1c-0.6,0.4-1,0.7-1.4,1c-0.4,0.2-0.8,0.5-1.4,0.7
			c-0.6,0.2-1.1,0.4-1.6,0.4h0h0c-0.5,0-1.1-0.1-1.6-0.4c-0.6-0.2-1.1-0.5-1.4-0.7c-0.4-0.2-0.8-0.6-1.4-1c-1.3-1-3.8-2.7-7.4-5.1
			c-0.6-0.4-1.1-0.8-1.5-1.3V47c0,0.7,0.2,1.2,0.7,1.7c0.5,0.5,1,0.7,1.7,0.7h21.9c0.7,0,1.2-0.2,1.7-0.7c0.5-0.5,0.7-1,0.7-1.7
			V35.2C53.3,35.7,52.8,36.1,52.2,36.5z"/>
	</g>
</g>
</svg>
