<?xml version="1.0" encoding="utf-8"?>
<!DOCTYPE svg PUBLIC "-//W3C//DTD SVG 1.1//EN" "http://www.w3.org/Graphics/SVG/1.1/DTD/svg11.dtd">
<svg version="1.1" id="Layer_1" xmlns="http://www.w3.org/2000/svg" xmlns:xlink="http://www.w3.org/1999/xlink" x="0px" y="0px"
	 width="50px" height="50px" viewBox="3.5 2.7 50 50" enable-background="new 3.5 2.7 50 50" xml:space="preserve">
<path fill="#191717" d="M28.4,2.7C14.6,2.7,3.5,14.2,3.5,28.3c0,11.3,7.2,20.9,16.9,24.4c1.2,0.2,1.7-0.6,1.7-1.3s0-2.2,0-4.4
	c-6.8,1.5-8.4-3.4-8.4-3.4c-1.1-3-2.7-3.8-2.7-3.8c-2.3-1.5,0.2-1.5,0.2-1.5C13.6,38.4,15,41,15,41c2.3,4,5.8,2.8,7.2,2.2
	c0.2-1.7,0.9-2.8,1.5-3.4c-5.5-0.6-11.3-2.8-11.3-12.7c0-2.8,0.9-5.1,2.6-6.9c-0.2-0.5-1.1-3.2,0.3-6.6c0,0,2.1-0.6,6.8,2.7
	c2-0.6,4.1-0.8,6.2-0.8c2.1,0,4.3,0.3,6.2,0.8c4.7-3.3,6.8-2.7,6.8-2.7c1.4,3.4,0.4,6.1,0.3,6.8c1.5,1.7,2.6,4.1,2.6,6.9
	c0,9.9-5.8,11.9-11.3,12.5c0.9,0.8,1.7,2.3,1.7,4.7c0,3.4,0,6.1,0,7c0,0.6,0.4,1.4,1.7,1.3c10.1-3.4,17.2-13.1,17.2-24.4
	C53.3,14.2,42.2,2.7,28.4,2.7z"/>
</svg>
