<?xml version="1.0" encoding="utf-8"?>
<!DOCTYPE svg PUBLIC "-//W3C//DTD SVG 1.1//EN" "http://www.w3.org/Graphics/SVG/1.1/DTD/svg11.dtd">
<svg version="1.1" id="Layer_1" xmlns="http://www.w3.org/2000/svg" xmlns:xlink="http://www.w3.org/1999/xlink" x="0px" y="0px"
	 width="50px" height="50px" viewBox="56.6 51.4 50 50" enable-background="new 56.6 51.4 50 50" xml:space="preserve">
<path d="M56.6,76.4c0-3.3,0.7-6.6,2-9.7c1.3-3.1,3.1-5.7,5.3-8c2.2-2.3,4.9-4,8-5.3c3.1-1.3,6.4-2,9.7-2s6.6,0.7,9.7,2
	c3.1,1.3,5.7,3.1,8,5.3c2.3,2.2,4,4.9,5.3,8c1.3,3.1,2,6.4,2,9.7s-0.7,6.6-2,9.7c-1.3,3.1-3.1,5.7-5.3,8c-2.2,2.3-4.9,4-8,5.3
	c-3.1,1.3-6.4,2-9.7,2s-6.6-0.7-9.7-2c-3.1-1.3-5.7-3.1-8-5.3c-2.3-2.2-4-4.9-5.3-8C57.3,83,56.6,79.8,56.6,76.4L56.6,76.4z
	 M68.7,84.5c0,1.3,0.5,2.5,1.4,3.4c0.9,1,2.1,1.4,3.4,1.4h16.1c1.3,0,2.5-0.5,3.4-1.4c1-0.9,1.4-2,1.4-3.4V68.3
	c0-1.3-0.5-2.5-1.4-3.4c-0.9-1-2.1-1.4-3.4-1.4h-16c-1.3,0-2.5,0.5-3.4,1.4s-1.4,2-1.4,3.4L68.7,84.5L68.7,84.5z M73,84.5V73.7
	c0-0.2,0.1-0.2,0.2-0.4c0.1-0.1,0.2-0.2,0.3-0.2h3.3c0.2,0,0.2,0.1,0.3,0.2s0.2,0.2,0.2,0.4v10.7c0,0.2-0.1,0.2-0.2,0.4
	c-0.1,0.2-0.2,0.2-0.3,0.2h-3.3c-0.2,0-0.2-0.1-0.3-0.2C73.1,84.7,73,84.7,73,84.5z M73,69.9c0-0.6,0.2-1.1,0.7-1.5
	c0.4-0.4,0.9-0.7,1.5-0.7c0.6,0,1.1,0.2,1.5,0.6c0.4,0.4,0.7,0.9,0.7,1.5c0,0.6-0.2,1.1-0.6,1.5c-0.5,0.5-1,0.7-1.6,0.7
	c-0.6,0-1.1-0.2-1.5-0.6C73.3,71,73,70.4,73,69.9L73,69.9z M78.4,84.5V73.7c0-0.2,0.1-0.2,0.2-0.3c0.2-0.1,0.3-0.2,0.5-0.2h2.9
	c0.4,0,0.6,0.2,0.6,0.6c0-0.1,0.1-0.1,0.2-0.2c0.8-0.5,1.7-0.7,2.7-0.7c1.5,0,2.6,0.4,3.4,1.1c0.8,0.7,1.2,1.8,1.2,3.3v7.3
	c0,0.2-0.1,0.2-0.2,0.4c-0.1,0.1-0.2,0.2-0.3,0.2h-3.1c-0.2,0-0.3-0.1-0.4-0.2c-0.2-0.1-0.2-0.2-0.2-0.4v-6.6c0-0.6-0.1-1-0.2-1.2
	c-0.2-0.2-0.6-0.3-1.1-0.3c-1.3,0-1.9,0.8-1.9,2.4v5.9c0,0.2-0.1,0.2-0.2,0.4c-0.1,0.2-0.4,0.1-0.5,0.1h-3.1c-0.2,0-0.3-0.1-0.5-0.2
	C78.5,84.7,78.4,84.7,78.4,84.5L78.4,84.5z"/>
</svg>
