<?xml version="1.0" encoding="utf-8"?>
<!DOCTYPE svg PUBLIC "-//W3C//DTD SVG 1.1//EN" "http://www.w3.org/Graphics/SVG/1.1/DTD/svg11.dtd">
<svg version="1.1" id="Layer_1" xmlns="http://www.w3.org/2000/svg" xmlns:xlink="http://www.w3.org/1999/xlink" x="0px" y="0px"
	 width="50px" height="50px" viewBox="23.2 25.2 50 50" enable-background="new 23.2 25.2 50 50" xml:space="preserve">
<path d="M23.2,50.2c0-3.4,0.7-6.6,2-9.7c1.3-3.1,3.1-5.8,5.3-8c2.2-2.2,4.9-4,8-5.3c3.1-1.3,6.3-2,9.7-2c3.4,0,6.6,0.7,9.7,2
	c3.1,1.3,5.8,3.1,8,5.3c2.2,2.2,4,4.9,5.3,8c1.3,3.1,2,6.3,2,9.7c0,3.4-0.7,6.6-2,9.7c-1.3,3.1-3.1,5.8-5.3,8c-2.2,2.2-4.9,4-8,5.3
	c-3.1,1.3-6.3,2-9.7,2c-3.4,0-6.6-0.7-9.7-2c-3.1-1.3-5.8-3.1-8-5.3c-2.2-2.2-4-4.9-5.3-8C23.9,56.8,23.2,53.6,23.2,50.2L23.2,50.2z
	 M33.4,60.8c0,0.2,0.1,0.3,0.2,0.4c0.2,0.2,0.7,0.5,1.5,0.8c2.6,1.3,5.3,2,8.2,2c3.6,0,6.8-0.9,9.7-2.8c1.4-0.9,2.6-1.9,3.7-3.2
	c1.1-1.2,1.9-2.5,2.5-3.9s1.1-2.7,1.4-4.1c0.3-1.4,0.5-2.7,0.5-3.9v-0.5c1.2-0.9,2.2-1.9,2.9-3.1c0.1-0.1,0.1-0.2,0.1-0.3
	c0-0.2-0.1-0.2-0.2-0.4c-0.1-0.2-0.2-0.2-0.4-0.2L63,41.8c-0.7,0.3-1.1,0.5-1.2,0.5c0.3-0.4,0.6-0.8,0.8-1.3
	c0.3-0.5,0.5-0.9,0.5-1.2c0-0.2-0.1-0.2-0.2-0.3c-0.1-0.1-0.2-0.2-0.4-0.2c-0.1,0-0.2,0-0.2,0.1c-1.3,0.7-2.5,1.2-3.4,1.4
	c-1.3-1.2-2.8-1.8-4.6-1.8c-1.8,0-3.4,0.6-4.7,1.9c-1.3,1.3-1.9,2.8-1.9,4.7c0,0.2,0,0.5,0.1,0.8c-3.7-0.4-6.9-1.8-9.7-4.2
	c-0.5-0.5-1.1-1.1-1.8-1.8c-0.2-0.2-0.3-0.2-0.5-0.2c-0.2,0-0.3,0.1-0.4,0.2c-0.6,0.8-0.9,2-0.9,3.3c0,1.5,0.5,2.9,1.5,4.2
	c0,0-0.2-0.1-0.5-0.2c-0.2-0.2-0.5-0.2-0.5-0.2c-0.2,0-0.3,0.1-0.5,0.2c-0.2,0.1-0.2,0.2-0.2,0.4c0,1.2,0.3,2.2,0.8,3.2
	c0.5,1,1.4,1.8,2.3,2.4h-0.1c0,0-0.1,0-0.2,0c-0.1,0-0.2,0-0.2,0c-0.2,0-0.2,0.1-0.4,0.2c-0.1,0.1-0.2,0.2-0.2,0.4
	c0,0,0,0.1,0.1,0.2c0.4,1.1,0.9,2,1.8,2.8c0.8,0.8,1.8,1.3,2.9,1.6c-1.8,1.2-3.9,1.7-6.2,1.7c-0.1,0-0.3,0-0.8-0.1
	c-0.2,0-0.2,0-0.4,0s-0.2,0-0.3,0c-0.2,0-0.2,0.1-0.3,0.2S33.4,60.7,33.4,60.8L33.4,60.8z"/>
</svg>
